<svg width="507" height="577" viewBox="0 0 507 577" fill="none" xmlns="http://www.w3.org/2000/svg">
<path fill-rule="evenodd" clip-rule="evenodd" d="M505.017 94.1001H500.017L494.017 99.1001L492.017 98.1001L490.017 95.1001L489.017 92.1001L488.017 88.1001L492.017 87.1001L489.017 85.1001L487.017 83.1001L484.017 79.1001L483.017 76.1001L487.017 70.1001L489.017 64.1001C489.017 64.1001 492.517 57.2001 493.017 56.1001C493.517 55.0001 492.017 54.1001 492.017 54.1001C492.017 54.1001 485.917 59.4001 486.017 60.1001C486.117 60.8001 481.017 63.1001 481.017 63.1001L474.017 70.1001C474.017 70.1001 469.217 70.7001 468.017 71.1001C466.817 71.5001 461.317 68.8001 461.017 68.1001C460.717 67.4001 458.017 63.1001 458.017 63.1001C458.017 63.1001 456.317 66.9001 456.017 68.1001C455.717 69.3001 453.017 66.1001 453.017 66.1001L454.017 63.1001L451.017 61.1001C451.017 61.1001 448.717 62.2001 448.017 63.1001C447.317 64.0001 446.017 63.1001 446.017 63.1001L441.017 62.1001C441.017 62.1001 439.917 60.0001 440.017 59.1001C440.117 58.2001 436.517 57.5001 436.017 56.1001C435.517 54.7001 428.017 52.1001 428.017 52.1001C428.017 52.1001 421.717 45.9001 420.017 45.1001C418.317 44.3001 410.017 34.5001 409.017 33.1001C407.917 31.7001 406.017 27.9001 404.017 25.1001C402.017 22.3001 396.517 12.5001 395.017 11.1001C393.517 9.7001 389.917 7.1001 389.017 6.1001C388.117 5.1001 386.017 1.1001 386.017 1.1001L384.017 5.1001H380.017L378.017 4.1001L377.017 9.1001C377.017 9.1001 373.917 13.5001 374.017 15.1001C374.117 16.7001 374.517 17.9001 376.017 21.1001C377.517 24.3001 381.017 33.1001 381.017 33.1001V42.1001C381.017 42.1001 380.517 49.3001 380.017 50.1001C379.517 50.9001 378.017 53.4001 377.017 54.1001C376.017 54.8001 377.617 65.3001 378.017 66.1001C378.417 66.9001 376.017 72.1001 376.017 72.1001C376.017 72.1001 370.717 74.5001 370.017 75.1001C369.317 75.7001 367.017 79.1001 367.017 79.1001C367.017 79.1001 369.217 83.9001 369.017 85.1001C368.817 86.3001 371.017 90.1001 371.017 90.1001C371.017 90.1001 370.717 95.6001 370.017 96.1001C369.317 96.6001 365.417 101.9 365.017 103.1C364.617 104.3 361.017 104.4 360.017 103.1C359.017 101.8 356.017 102.1 356.017 102.1C356.017 102.1 350.917 104.1 349.017 103.1C347.117 102.1 346.017 100.1 346.017 100.1L342.017 96.1001C342.017 96.1001 338.617 96.5001 338.017 96.1001C337.417 95.7001 336.017 98.1001 336.017 98.1001C336.017 98.1001 338.017 102.8 338.017 104.1C338.017 105.4 341.017 108.1 341.017 108.1C341.017 108.1 341.217 110.3 341.017 111.1C340.817 111.9 338.017 113.1 338.017 113.1L335.017 119.1C335.017 119.1 333.917 119.1 333.017 118.1C332.117 117.1 330.017 120.1 330.017 120.1L328.017 123.1C328.017 123.1 325.417 122.9 324.017 123.1C322.617 123.3 321.017 124.1 321.017 124.1C321.017 124.1 321.317 134.2 321.017 136.1C320.717 138 319.017 139.1 319.017 139.1C319.017 139.1 318.817 143.1 320.017 143.1C321.217 143.1 322.317 143.7 323.017 145.1C323.717 146.5 323.817 145.9 326.017 148.1C328.217 150.3 328.617 150 330.017 151.1C331.417 152.2 330.417 154.4 330.017 156.1C329.517 157.8 327.017 162.1 327.017 162.1C327.017 162.1 325.717 165.7 325.017 166.1C324.317 166.5 325.117 170.1 325.017 171.1C324.917 172.1 327.017 175.1 327.017 175.1L331.017 177.1L333.017 175.1C333.017 175.1 339.617 172 340.017 171.1C340.417 170.2 338.317 166 339.017 166.1C339.717 166.2 344.017 162.1 344.017 162.1L347.017 159.1L349.017 161.1C349.017 161.1 353.717 164.1 355.017 165.1C356.317 166.1 359.117 163.5 361.017 163.1C362.917 162.7 361.017 158.1 361.017 158.1L357.017 156.1C357.017 156.1 355.017 154.7 354.017 153.1C353.017 151.5 351.017 149.1 351.017 149.1C351.017 149.1 346.817 146.8 346.017 147.1C345.217 147.4 342.717 146.5 342.017 146.1C341.317 145.7 338.917 144.6 338.017 143.1C337.017 141.6 335.817 140.9 335.017 139.1C334.217 137.3 336.017 133.1 336.017 133.1L341.017 127.1C341.017 127.1 343.317 128.9 344.017 128.1C344.717 127.3 349.017 128.1 349.017 128.1C349.017 128.1 350.317 130.2 351.017 131.1C351.717 132 352.217 133.3 354.017 135.1C355.817 136.9 357.017 139.1 357.017 139.1L358.017 137.1C358.017 137.1 361.317 134.6 362.017 133.1C362.717 131.6 367.317 129.9 369.017 129.1C370.717 128.3 375.117 126.1 376.017 126.1C376.917 126.1 384.017 128.1 384.017 128.1L388.017 132.1C388.017 132.1 393.417 133.9 395.017 135.1C396.617 136.3 400.417 138 403.817 140.9C407.117 143.7 417.017 145.6 417.017 146.2C417.017 146.8 426.017 155.1 426.017 155.1V152.1L429.017 150.1V143.1C429.017 143.1 429.517 136.1 430.017 135.1C430.417 134.1 442.117 120.4 444.017 119.1C445.917 117.8 451.917 112.9 453.017 112.1C454.117 111.3 460.017 110.1 460.017 110.1C460.017 110.1 460.717 111.6 463.017 113.1C465.317 114.6 471.717 113.5 473.017 113.1C474.317 112.7 473.917 113.5 473.017 111.1C472.117 108.7 475.017 109.1 475.017 109.1C475.017 109.1 477.017 111.6 478.017 111.1C478.917 110.6 484.017 108.1 484.017 108.1L486.017 105.1C486.017 105.1 488.417 104.4 491.017 104.1C493.617 103.8 498.017 103.1 498.017 103.1L500.017 98.1001L506.017 96.1001L505.017 94.1001Z" stroke="black" stroke-opacity="0.2" stroke-miterlimit="10"/>
<path fill-rule="evenodd" clip-rule="evenodd" d="M388.017 250.1C388.217 249.3 387.017 247.9 387.017 246.1C387.017 244.3 387.017 238.1 386.017 236.1C385.017 234.1 383.017 231.1 383.017 231.1C383.017 231.1 383.517 229.6 383.017 230.1C382.517 230.6 382.517 226.6 383.017 226.1C383.517 225.6 382.517 222.9 383.017 222.1C383.517 221.3 378.017 216.1 378.017 216.1L376.017 214.1C376.017 214.1 372.317 210.1 372.017 209.1C371.717 208.1 370.717 207.2 370.017 206.1C369.317 205 368.217 200 368.017 198.1C367.817 196.2 369.017 186.1 369.017 186.1L370.017 176.1L365.017 179.1H363.017L360.017 174.1L357.017 173.1H354.017L351.017 179.1L350.017 183.1C350.017 183.1 351.517 186.8 352.017 186.1C352.517 185.4 357.217 185.5 358.017 185.1C358.817 184.7 364.017 183.1 364.017 183.1L366.017 186.1L364.017 191.1C364.017 191.1 362.917 193.7 363.017 196.1C363.117 198.5 361.017 198.1 361.017 198.1L357.017 195.1L353.017 194.1L351.017 200.1H346.017C346.017 200.1 346.217 194.3 346.017 193.1C345.817 191.9 345.017 188.1 345.017 188.1L344.017 184.1L340.017 186.1C340.017 186.1 337.417 183.3 337.017 184.1C336.617 184.9 335.017 187.1 335.017 187.1L337.017 191.1C337.017 191.1 336.117 194.3 336.017 195.1C335.917 195.9 334.017 198.1 334.017 198.1L333.017 202.1C333.017 202.1 327.617 204.1 327.017 203.1C326.417 202.1 323.017 208.1 323.017 208.1L321.017 210.1L323.017 211.1L324.017 215.1L326.017 219.1L326.217 218.7L327.017 221.1V223.1C327.017 223.1 326.517 225.8 326.017 227.1C325.517 228.4 324.817 229.4 325.017 231.1C325.217 232.8 322.317 234.4 321.017 235.1C319.717 235.8 318.017 235.1 318.017 235.1L316.017 237.1V239.1L317.017 240.1H320.017C320.017 240.1 320.217 238.4 320.017 238.1C319.817 237.8 323.017 238.1 323.017 238.1L325.017 239.1L327.017 242.1C327.017 242.1 328.017 244.3 328.017 245.1C328.017 245.9 327.017 248.1 327.017 248.1V254.1C327.017 254.1 325.717 258.8 326.017 259.1C326.317 259.4 324.517 261.3 324.017 261.1C323.517 260.9 322.017 264.4 322.017 265.1V268.1V269.1C322.017 269.1 321.217 272.8 321.017 273.1C320.817 273.4 320.017 276.4 320.017 277.1C320.017 277.8 318.717 280.1 319.017 281.1C319.317 282.1 317.217 283.9 317.017 285.1C316.817 286.3 315.017 285.9 313.017 287.1L311.017 291.1L309.017 295.1V298.1C308.517 298.4 308.217 303.4 308.017 303.1C307.817 302.8 307.717 305.8 308.017 307.1C308.117 307.4 306.617 309.1 306.017 310.1C305.217 311.4 302.517 312.4 301.017 314.1C299.517 315.8 297.017 315.3 295.017 316.1C293.017 316.9 289.017 320.1 289.017 320.1C289.017 320.1 287.717 325.8 288.017 326.1C288.317 326.4 287.817 328.6 287.017 329.1C286.217 329.6 285.717 331.4 284.017 333.1C282.317 334.8 282.217 336.1 282.017 337.1C281.817 338.1 279.017 338.3 277.017 340.1C275.017 341.9 273.717 344.3 273.017 345.1C272.317 345.9 268.517 344.9 268.017 345.1L265.017 346.1C265.017 346.1 262.217 348.4 262.017 349.1C261.817 349.8 256.817 350.8 256.017 351.1C255.217 351.4 252.017 353.1 252.017 353.1H249.017C249.017 353.1 247.317 354.6 246.017 355.1C244.717 355.6 245.117 356.6 245.017 358.1C244.917 359.6 243.817 359.9 243.017 361.1C242.217 362.3 241.217 362.9 240.017 363.1C238.817 363.3 236.817 362.9 236.017 362.1C235.217 361.3 233.217 360.1 233.017 359.1C232.817 358.1 233.017 357.1 233.017 357.1L234.017 353.1L235.017 352.1L234.017 350.1V348.1L232.017 347.1C232.017 347.1 231.517 348.5 232.017 349.1C232.517 349.6 229.017 349.1 229.017 349.1L228.017 348.1L229.017 346.1L230.017 345.1H233.017C233.017 345.1 233.717 343.6 235.017 343.1C236.317 342.6 236.017 341.1 236.017 341.1C236.017 341.1 237.417 341.4 238.017 341.1C238.617 340.8 239.817 339.8 240.017 339.1C240.217 338.4 240.017 337.1 240.017 337.1C240.017 337.1 242.017 335.7 243.017 335.1C244.017 334.5 244.017 333.1 244.017 333.1C244.017 333.1 242.517 331.5 242.017 331.1C241.517 330.7 240.317 331.7 239.017 332.1C237.717 332.5 235.217 334.6 234.017 335.1C232.817 335.6 231.917 336.4 230.017 337.1C228.117 337.8 228.217 337.4 226.017 338.1C224.217 338.7 223.917 339.1 223.917 339.2C223.917 339.2 223.917 339.2 224.017 339.1C224.217 338.8 223.117 341.4 223.017 342.1C222.917 342.8 222.317 345.6 222.017 346.1C221.717 346.6 223.817 349.1 224.017 350.1C224.217 351.1 224.017 352.1 224.017 352.1C224.017 352.1 224.717 356.4 225.017 357.1C225.317 357.8 224.017 358.1 223.017 360.1C222.017 362.1 221.417 364.1 221.017 364.1C220.617 364.1 218.317 369.5 218.017 370.1C217.717 370.7 215.417 373.5 215.017 374.1C214.617 374.7 209.017 379.1 209.017 379.1V381.1C208.817 380.2 208.017 381.1 208.017 381.1C208.017 381.1 206.017 381.2 205.017 382.1C204.017 383 204.017 384.1 204.017 384.1C204.017 384.1 203.717 386.7 203.017 388.1C202.317 389.5 201.417 389.6 200.017 390.1C198.617 390.6 199.317 391.3 200.017 392.1C200.717 392.9 200.817 393.2 201.017 395.1C201.217 397 202.717 395.6 203.017 396.1C203.317 396.6 205.017 398.3 205.017 399.1C205.017 399.9 204.417 401 204.017 403.1C203.617 405.2 203.117 402.9 203.017 402.1C202.917 401.3 200.617 401.3 200.017 401.1C199.417 400.9 200.317 404.2 200.017 405.1C199.717 406 198.917 405.1 197.017 405.1C195.117 405 196.817 406.7 196.017 407.1C195.217 407.5 194.817 406.7 193.017 408.1C192.317 408.7 192.017 409 191.917 409.1C192.017 409.1 192.017 409.1 192.017 409.1C192.017 409.1 191.717 409.2 191.917 409.1C191.417 409 189.217 408.5 189.017 408.1C188.817 407.6 187.517 409.9 187.017 410.1C186.517 410.3 184.917 407.4 184.017 408.1C183.917 408.1 183.917 408.2 183.917 408.3C183.917 407.7 184.017 407.1 184.017 407.1C184.017 407.1 182.417 406.7 182.017 407.1C181.617 407.5 180.517 408.6 180.017 409.1C179.517 409.6 178.817 408.8 178.017 408.1C177.217 407.4 178.017 405.9 178.017 404.1C178.017 402.3 179.917 403.8 181.017 403.1C182.117 402.4 180.117 401.9 179.017 401.1C177.917 400.3 178.017 399.1 178.017 399.1C178.017 399.1 175.917 400.6 175.017 401.1C174.117 401.6 173.517 401.2 172.017 402.1C170.517 403 169.117 403.8 168.017 404.1H167.017C166.817 403.6 164.917 403.8 165.017 404.1C165.117 404.4 156.017 403.4 156.017 404.1C156.017 404.8 154.517 403.8 154.017 404.1L153.017 405.1C153.017 405.1 150.617 406.1 150.017 406.1C149.417 406.1 147.217 408.4 146.017 409.1C144.817 409.8 143.217 409.9 142.017 410.1C140.817 410.3 139.617 408.9 138.017 409.1C136.417 409.3 137.517 410.5 137.017 411.1C136.517 411.7 133.717 411.2 132.017 411.1C130.317 411 130.017 410.1 130.017 410.1H124.017C124.017 410.1 123.617 410.1 123.017 411.1C122.417 412.1 117.017 411.1 117.017 411.1L118.017 408.1C118.017 408.1 110.517 406.9 110.017 408.1C109.517 409.3 107.317 408.2 106.017 408.1C104.717 408 103.017 410.1 103.017 410.1C103.017 410.1 98.9173 411.8 99.0173 412.1C99.1173 412.4 97.6173 413.7 97.0173 414.1C96.4173 414.5 97.4173 417.9 97.0173 418.1C96.6173 418.3 95.7173 418.6 95.0173 419.1C94.3173 419.5 92.5173 420.5 92.0173 421.1C91.5173 421.6 88.0173 425.1 88.0173 425.1L86.0173 426.1C86.0173 426.1 84.1173 427 83.0173 428.1C81.9173 429.2 79.9173 431.4 79.0173 432.1C78.1173 432.8 74.0173 437.7 73.0173 439.1C72.3173 440.1 70.2173 441.1 68.9173 441.7C68.7173 441.1 67.8173 440.8 68.0173 441.1C68.2173 441.5 65.3173 440.7 64.0173 442.1C62.7173 443.5 63.0173 444.3 63.0173 445.1C63.0173 445.9 61.0173 446.1 61.0173 446.1C61.0173 446.1 59.8173 447.5 59.0173 448.1C58.2173 448.7 57.1173 450.4 56.0173 451.1C54.9173 451.8 54.6173 451.7 53.0173 453.1C51.4173 454.5 51.0173 452.1 51.0173 452.1C51.0173 452.1 47.6173 450.6 47.0173 450.1C46.4173 449.6 46.1173 451.5 45.0173 453.1C43.9173 454.7 42.7173 454.2 42.0173 454.1C41.3173 454 44.0173 458.1 44.0173 458.1C43.8173 458 42.9173 460.7 42.0173 461.1C41.1173 461.5 41.1173 461.8 42.0173 463.1C42.9173 464.4 42.9173 465.6 43.0173 466.1C43.1173 466.6 44.4173 468.4 45.0173 468.1C45.6173 467.8 45.1173 466.9 45.0173 466.1C44.9173 465.3 46.3173 465.4 47.0173 465.1C47.7173 464.8 47.4173 464.1 48.0173 464.1C48.6173 464.1 48.8173 465.4 50.0173 466.1C51.2173 466.8 50.9173 466.9 52.0173 468.1C53.1173 469.3 55.2173 468.4 56.0173 468.1C56.8173 467.8 57.0173 467.1 57.0173 467.1V465.1C57.0173 465.1 59.4173 467.3 60.0173 467.1C60.6173 466.9 60.0173 465.1 60.0173 465.1C60.0173 465.1 64.2173 465.8 65.0173 465.1C65.8173 464.4 66.6173 464.8 67.0173 464.1C67.4173 463.4 68.1173 463.5 69.0173 464.1C69.9173 464.7 72.0173 465 74.0173 467.1C76.0173 469.2 76.0173 469.1 76.0173 469.1L79.0173 470.1C79.0173 470.1 80.1173 470.5 80.7173 470.5C81.3173 470.5 81.7173 470.7 81.0173 470.1C80.4173 469.5 81.6173 468.6 82.0173 468.1C82.4173 467.6 83.0173 467.5 84.0173 467.1C85.0173 466.7 83.7173 465.2 84.0173 464.1C84.3173 463 82.4173 462.8 83.0173 461.1C83.6173 459.4 83.2173 458.9 83.0173 458.1C83.0173 458.1 85.6173 455.6 86.0173 455.1C86.4173 454.6 89.0173 452.1 89.0173 452.1H91.0173L93.0173 454.1C93.0173 454.1 92.4173 458 93.0173 458.1C93.6173 458.2 95.1173 459.3 96.0173 459.1C96.9173 458.9 100.317 457.1 100.017 457.1C99.9173 457.1 99.9173 457.1 99.9173 457.1C99.9173 457.1 100.317 457 101.017 456.1C101.717 455.1 103.617 454 104.017 454C104.217 453.9 104.517 453.9 105.017 454.1C106.517 454.6 108.417 454.4 109.017 454.1C109.617 453.8 110.517 452.5 111.017 452.1C111.517 451.7 112.017 451.1 112.017 451.1C112.017 451.1 114.517 450.2 115.017 450.1C115.517 450 116.217 450.3 117.017 451.1C117.817 451.9 118.117 452.5 119.017 452.1C119.917 451.7 121.317 450.4 122.017 450.1C122.717 449.8 124.017 448.1 124.017 448.1L126.017 449.1H128.017L129.017 447.1L130.017 449.1C130.017 449.1 132.617 449.1 135.017 449.1C137.417 449.1 138.317 447.5 138.017 447.1C137.717 446.7 139.617 445.1 141.017 444.1C142.417 443.1 143.017 443 144.017 442.1C145.017 441.2 146.117 440.1 147.017 439.1C147.917 438.1 150.017 439.1 150.017 439.1C150.917 440.3 151.817 438.6 153.017 438.1C154.217 437.6 160.017 437.1 160.017 437.1H164.017C164.017 437.1 166.017 438.6 167.017 440.1C168.017 441.6 169.517 441.6 170.017 442.1C170.517 442.5 172.317 442.8 173.017 443.1C173.717 443.4 175.717 442.2 176.017 441.1C176.317 440 178.417 440.5 180.017 440.1C181.617 439.7 181.417 439 182.017 438.1L183.017 439.1C183.017 439.1 183.017 441.1 183.017 442.1C183.017 443.1 183.017 444.5 183.017 446.1C183.017 447.7 182.017 446.8 181.017 449.1C180.017 451.4 179.417 451 178.017 452.1C176.617 453.2 175.017 453.1 175.017 453.1L173.017 454.1C173.017 454.1 173.917 454.8 174.617 455.1L173.017 456.1C173.017 456.1 173.617 458.2 174.017 458.1C174.417 458 174.317 458.5 175.017 459.1C175.717 459.7 177.517 461.2 177.017 461.1C176.517 461 175.017 462.1 175.017 462.1C175.017 462.1 174.317 463.5 175.017 464.1C175.717 464.6 176.017 466.1 176.017 466.1C176.017 466.1 174.717 466.9 174.017 467.1C173.317 467.3 172.917 466.8 173.017 468.1C173.117 469.4 175.017 470.7 175.017 471.1C175.017 471.5 177.117 472.4 177.017 473.1C176.917 473.8 179.017 474.1 179.017 474.1C179.017 474.1 181.417 475.4 182.017 476.1C182.617 476.8 181.617 479.6 182.017 480.1C182.417 480.6 184.817 481.5 185.017 482.1C185.217 482.7 186.517 484.3 187.017 484.1C187.517 483.9 187.417 485 189.017 485.1C190.617 485.2 192.617 486.1 193.017 486.1C193.417 486.1 193.717 486.2 195.017 485.1C196.317 484 197.117 484.3 198.017 483.1C198.917 481.9 199.517 482.3 200.017 481.1C200.517 479.9 201.017 478.1 201.017 478.1L200.517 476.5C200.917 476.8 201.117 477 201.017 477.1C200.917 477.3 203.017 477.1 203.017 477.1C203.017 477.1 202.717 475.5 203.017 475.1C203.317 474.7 203.417 473.4 204.017 472.1C204.617 470.8 205.917 469.9 206.017 469.1C206.117 468.3 207.917 468 209.017 468.1C210.117 468.2 210.017 465.5 210.017 465.1C210.017 464.7 210.117 462.3 210.017 462.1C209.917 461.9 210.917 460.9 211.017 460.1C211.117 459.3 212.417 459 214.017 458.1C215.617 457.2 216.517 457.9 218.017 457.1C219.517 456.3 221.817 454.8 222.017 454.1C222.217 453.4 224.317 454.7 225.017 455.1C225.717 455.5 226.917 456 227.017 456.1C227.117 456.2 227.417 454.7 227.017 454.1C226.617 453.5 228.517 452.1 229.017 451.1C229.517 450.1 228.717 449.9 229.017 449.1C229.317 448.3 226.717 448.1 226.017 448.1C225.317 448.1 224.617 447.4 223.017 446.1C221.417 444.8 221.317 445.6 220.017 444.1C218.717 442.6 218.517 442.3 218.017 442.1C217.517 441.9 217.617 440.6 218.017 440.1C218.417 439.6 218.117 437.7 218.017 437.1C217.917 436.5 220.017 434.1 220.017 434.1C220.017 434.1 220.717 430.6 221.017 430.1C221.317 429.6 221.617 428.9 222.017 429.1C222.417 429.3 224.017 428.1 224.017 428.1L225.017 427.1H228.017C228.017 427.1 227.217 428.2 227.017 429.1C226.817 430 226.317 429.9 226.017 430.1C225.717 430.3 227.617 432.6 228.017 433.1C228.417 433.6 227.117 434.4 227.017 435.1C226.917 435.8 227.917 437.4 228.017 438.1C228.117 438.8 229.817 439.9 230.017 440.1C230.217 440.3 231.517 440.2 232.017 439.1C232.517 438 230.517 438.1 230.017 437.1C229.517 436 230.017 435.1 230.017 435.1C230.017 435.1 230.817 434.4 231.017 434.1C231.217 433.8 232.017 436 232.017 437.1C232.017 438.2 234.217 437.5 236.017 438.1C237.817 438.7 238.217 436.6 238.017 436.1C237.817 435.6 240.017 435.1 240.017 435.1C240.017 435.1 240.817 436.3 242.017 437.1C243.217 437.9 242.017 437.9 242.017 439.1C242.017 440.3 240.317 439.7 240.017 440.1C239.717 440.5 235.717 441.6 235.017 442.1C234.317 442.6 234.017 444.1 234.017 444.1C234.017 444.1 237.717 443.5 239.017 443.1C240.317 442.7 242.917 441.5 244.017 441.1C245.117 440.6 248.017 441.1 248.017 441.1C249.117 441.9 249.717 438 249.017 437.1C248.317 436.1 251.017 436.1 251.017 436.1C251.017 436.1 251.117 437.1 251.017 438.1C250.917 439.1 252.017 440.1 252.017 440.1C252.017 440.1 253.117 440.8 254.017 441.1C254.917 441.4 256.617 441.7 258.017 442.1C259.417 442.5 260.817 440.6 262.017 441.1C263.217 441.6 267.417 441.9 268.017 442.1C268.517 442.3 270.217 443.7 271.017 443.1C271.817 442.5 270.017 441.2 270.017 439.1C270.017 437 271.717 436.6 273.017 435.1C274.317 433.6 274.017 433.1 274.017 433.1L275.017 431.1L279.017 430.1C279.017 430.1 280.717 428.7 280.017 427.1C279.317 425.5 281.017 425.8 281.017 425.1C281.017 424.4 283.017 424.1 283.017 424.1C283.017 424.1 286.217 423.9 289.017 424.1C291.817 424.3 290.017 425.1 290.017 425.1V428.1L288.017 429.1C288.017 429.1 287.117 431.6 287.017 432.1C286.917 432.6 286.517 436.6 286.017 437.1C285.517 437.6 287.317 440.8 287.017 441.1C286.717 441.4 289.517 443.5 290.017 444.1C290.517 444.6 292.017 442.3 293.017 441.1C294.017 439.9 294.017 439.7 295.017 439.1C296.017 438.5 296.417 436.4 297.017 436.1C297.617 435.8 298.417 434.4 299.017 434.1C299.617 433.8 300.017 431.1 300.017 431.1C300.017 431.1 298.617 428.3 298.017 428.1C297.417 427.9 297.017 424.1 297.017 424.1L299.017 423.1C299.017 423.1 299.517 420.8 300.017 420.1C300.517 419.4 303.017 419 304.017 418.1C305.017 417.2 307.617 417 308.017 417.1C308.417 417.2 310.017 417.1 310.017 417.1C310.017 417.1 311.817 418.2 312.017 419.1C312.217 420 313.017 422.1 313.017 422.1C313.017 422.1 314.217 424.3 315.017 424.1C315.817 423.9 315.917 422.1 316.017 421.1C316.117 420.1 316.317 419.9 316.317 419.9C316.317 419.9 315.317 418.8 315.017 418.1C314.717 417.4 314.817 414.8 314.017 414.1C313.217 413.4 314.617 411.6 315.017 411.1C315.417 410.6 318.017 410.1 318.017 410.1L318.217 409.2C318.717 408 318.617 406.3 319.017 406.1C319.417 405.9 320.017 405.1 320.017 405.1C320.017 405.1 321.717 404.6 322.917 404.3L323.817 404.1H326.117C326.117 404.1 328.817 405.8 329.117 407.1C329.417 408.4 327.317 409.1 326.117 410.1C324.917 411.1 323.617 411.8 323.117 412.1C322.617 412.4 321.917 414.4 321.117 415.1C320.317 415.8 319.417 416.9 319.117 417.1C318.817 417.3 321.117 418.1 321.117 418.1C321.117 418.1 321.817 418.9 321.117 420.1C320.417 421.3 320.617 420.8 321.117 423.1C321.617 425.4 320.817 427.6 320.117 428.1C319.517 428.5 318.817 429.3 318.617 429.6C318.817 430 319.117 431.1 319.117 431.1L322.117 433.1L324.117 431.1C324.117 431.1 324.917 429.8 326.117 428.1C327.317 426.4 328.917 425.1 329.117 425.1C329.317 425.1 334.317 424.1 336.117 423.1C337.917 422.1 337.817 420.9 338.117 421.1C338.417 421.3 338.617 414.9 338.117 414.1C337.617 413.3 337.917 411.4 338.117 411.1C338.317 410.8 338.917 408.9 340.117 408.1C341.317 407.3 345.117 403.1 345.117 403.1C345.117 403.1 346.617 403.1 347.117 403.1C347.817 403.1 350.117 402.1 351.117 402.1H352.117L354.317 401.3C354.317 401.3 351.017 399.6 350.117 399.1C349.317 398.6 347.417 394.1 347.117 394.1C346.817 394.1 345.117 390.1 345.117 390.1C345.117 390.1 344.617 387.6 344.117 387.1C343.617 386.6 343.317 383.6 343.117 383.1C342.917 382.6 343.117 375.1 343.117 375.1C343.117 375.1 344.617 371.9 345.117 372.1C345.617 372.3 345.917 368.8 346.117 368.1C346.317 367.4 348.117 364.3 349.117 363.1C350.117 361.9 350.117 359.1 350.117 359.1C350.117 359.1 350.117 359.1 350.117 358.7C350.117 358.7 349.817 358.3 350.117 358.1C350.517 357.9 352.317 355.9 353.117 356.1C353.917 356.3 356.617 351.6 357.117 351.1C357.617 350.6 356.617 346.6 357.117 346.1C357.617 345.6 357.617 341.3 358.117 339.1C358.617 336.9 357.117 329.4 357.117 329.1C357.117 328.8 357.317 323.8 357.117 323.1C356.917 322.4 354.117 318.1 354.117 318.1V317.1V313.1C354.117 312.6 355.417 306.4 355.117 306.1C354.817 305.8 356.617 301.4 357.117 301.1L360.117 299.1L363.117 297.1H366.117C366.117 297.1 366.417 295.4 368.117 297.1C369.817 298.8 373.117 303.1 373.117 303.1C373.117 303.1 374.617 302.3 374.117 301.1C373.617 299.9 371.117 296.6 371.117 296.1C371.117 295.6 371.917 295.4 372.117 294.1C372.317 292.8 372.117 290.1 372.117 290.1L371.117 289.1C371.117 289.1 372.617 287.3 372.117 287.1C371.617 286.9 373.317 286.6 373.117 286.1C372.917 285.6 372.117 284.1 372.117 284.1C372.117 284.1 374.317 281.1 374.117 281.1C373.917 281.1 376.117 279.3 376.117 279.1C376.117 278.9 376.917 277.8 377.117 277.1C377.117 276.9 377.117 276.7 377.017 276.5C377.517 276.1 378.017 275.6 378.117 275.1C378.317 273.9 379.917 273.8 381.117 274.1C382.317 274.4 381.817 272.4 382.117 272.1C382.417 271.8 382.917 271.1 384.117 271.1C385.317 271.1 383.917 269.8 384.117 269.1C384.317 268.4 383.817 267.1 385.117 266.1C386.417 265.1 386.317 264.4 386.117 264.1C385.917 263.8 385.317 262.8 385.117 262.1C384.917 261.4 385.317 259.9 386.117 259.1C386.917 258.3 387.417 257.6 387.117 257.1C386.817 256.6 387.417 255.1 388.117 254.1C388.517 253.4 388.817 253.1 389.017 253C388.617 252.5 387.917 250.8 388.017 250.1ZM209.817 422.5C209.417 423.3 209.917 424.1 208.817 424.5C207.717 424.9 206.217 426 205.817 426.5C205.417 427 204.117 427.8 203.817 428.5C203.517 429.2 201.817 430.5 201.817 430.5H199.817V432.5L198.817 435.5L197.817 434.5L197.617 431.3L198.817 427.5L199.817 425.5C199.817 425.5 203.117 423.4 202.817 422.5C202.517 421.6 202.817 421.5 202.817 421.5C202.817 421.5 202.517 420 202.817 419.5C203.117 419 204.617 419 204.817 418.5C205.017 418 205.817 417.5 205.817 417.5C205.817 417.5 207.417 417.3 207.817 418.5C208.217 419.7 208.217 420.3 208.817 420.5C209.417 420.7 210.317 421.7 209.817 422.5Z" stroke="black" stroke-opacity="0.2" stroke-miterlimit="10"/>
<path fill-rule="evenodd" clip-rule="evenodd" d="M388.917 253C389.017 253.1 389.017 253.2 389.017 253.1C389.017 253 389.017 253 388.917 253Z" stroke="black" stroke-opacity="0.2" stroke-miterlimit="10"/>
<path fill-rule="evenodd" clip-rule="evenodd" d="M270.017 314.1C270.517 315.1 271.017 314.1 271.017 314.1C271.017 314.1 272.917 312.6 273.017 312.2C273.017 312.1 273.017 312.1 273.017 312.1V312.2C273.117 312.6 273.417 314.2 273.017 315.1C272.517 316.3 272.217 316.1 272.017 317.1C271.817 318.1 270.017 320.1 270.017 320.1C270.017 320.1 272.317 320.8 273.017 321.1C273.717 321.4 275.717 319.3 277.017 318.1C278.317 316.9 278.717 314.9 279.017 314.1C279.317 313.3 281.017 313.1 281.017 313.1C281.017 313.1 281.217 310.6 281.017 310.1C280.817 309.6 278.017 311.4 278.017 311.1C278.017 310.8 277.217 310.1 277.017 310.1C276.817 310.1 277.217 307.9 278.017 306.1C278.817 304.3 278.017 300.1 278.017 300.1C278.017 300.1 276.217 302.3 276.017 303.1C275.817 303.9 274.017 305.1 274.017 306.1C274.017 307.1 271.017 309.1 271.017 309.1C271.017 309.1 270.717 311.1 271.017 311.1C271.417 311.1 269.517 313.1 270.017 314.1Z" stroke="black" stroke-opacity="0.2" stroke-miterlimit="10"/>
<path fill-rule="evenodd" clip-rule="evenodd" d="M165.017 448.1C163.817 449 163.017 449.8 162.017 451.1C161.017 452.4 160.017 454.1 160.017 454.1V456.1H161.017C161.017 456.1 162.417 458.4 163.017 459.1C163.617 459.8 165.317 458.6 165.017 458.1C164.717 457.6 166.017 457.8 167.017 457.1C168.017 456.4 169.017 456.1 169.017 456.1C169.017 456.1 168.917 454.6 168.017 454.1C167.117 453.6 167.017 452.9 167.017 452.1V450.1C167.017 450.1 168.717 447.9 169.017 447.1C169.317 446.3 171.017 444.1 171.017 444.1L169.017 445.1C169.017 445.1 166.317 447.2 165.017 448.1Z" stroke="black" stroke-opacity="0.2" stroke-miterlimit="10"/>
<path fill-rule="evenodd" clip-rule="evenodd" d="M104.017 454.1C104.117 454 104.117 454 104.017 454.1C103.717 454.1 103.817 454.4 104.017 454.1Z" stroke="black" stroke-opacity="0.2" stroke-miterlimit="10"/>
<path fill-rule="evenodd" clip-rule="evenodd" d="M161.017 472.1C160.517 472.1 160.117 469.8 160.017 469.1C159.917 468.4 159.617 466.9 159.017 466.1C158.417 465.3 157.917 465.2 157.017 464.1C156.117 463 158.617 461.2 159.017 460.1C159.417 459 159.017 459.1 159.017 459.1L155.017 457.1L154.017 458.1C154.017 458.1 151.817 457.2 151.017 457.1C150.217 457 148.417 455.5 148.017 455.1C147.617 454.7 144.017 452.1 144.017 452.1C144.017 452.1 142.917 452.1 142.017 453.1C141.117 454.1 139.817 453 138.017 453.1C136.217 453.1 136.017 451.5 135.017 453.1C134.017 454.7 131.517 455.5 131.017 456.1C130.517 456.7 127.017 457.1 127.017 457.1C127.017 457.1 128.617 459.1 129.017 459.1C129.417 459.1 128.217 461 127.017 462.1C125.817 463.2 127.017 465.1 127.017 465.1V466.1C127.017 466.1 123.817 467.9 123.017 468.1C122.217 468.3 118.517 467.3 118.017 467.1C117.517 466.9 115.917 469 114.017 469.1C112.117 469.2 111.117 467.7 111.017 467.1C110.917 466.5 107.917 462.9 107.017 462.1C106.117 461.3 106.017 461.1 106.017 461.1L104.017 465.1C104.017 465.1 102.017 465.8 102.017 466.1C102.017 466.4 100.817 467.9 101.017 469.1C101.217 470.3 99.7171 470 99.0171 470.1C98.3171 470.2 98.9171 475.9 99.0171 477.1C99.1171 478.3 97.0171 478.3 96.0171 479.1C95.0171 479.9 93.8171 480 93.0171 480.1C92.2171 480.1 90.8171 482.5 91.0171 482.1C91.2171 481.7 89.0171 484.1 89.0171 484.1L85.0171 485.1L80.0171 489.1L81.0171 490.1C81.0171 490.1 83.5171 488.8 84.0171 489.1C84.5171 489.4 85.9171 487.4 86.7171 486.4C87.5171 485.4 88.7171 486.4 88.7171 486.4L90.0171 486.1L89.0171 488.1V490.1C89.0171 490.1 89.6171 491.6 90.0171 493.1C90.4171 494.6 92.0171 492.1 92.0171 492.1L93.0171 494.1L91.0171 496.1L90.0171 498.1C90.0171 498.1 91.3171 500.6 91.0171 501.1C90.7171 501.6 91.0171 502.1 91.0171 502.1C91.0171 502.1 92.5171 504.6 94.0171 505.1C95.5171 505.6 98.0171 505.1 98.0171 505.1H99.0171L98.0171 508.1L96.0171 511.1H99.0171L100.017 513.1C100.017 513.1 102.517 513.9 103.017 513.1C103.517 512.3 105.017 512.1 105.017 512.1C104.617 512.2 109.017 513.3 110.017 513.1C111.017 512.9 107.717 510.6 107.017 510.1C106.317 509.5 107.017 508.1 107.017 508.1C107.017 508.1 107.717 507.6 108.017 507.1C108.317 506.6 108.317 506.1 108.017 505.1C107.717 504.1 108.517 503.2 110.017 503.1C111.517 503 110.917 501.5 111.017 500.1C111.117 498.7 111.517 500 112.017 499.1C112.517 498.2 114.017 497.5 115.017 496.1C116.017 494.7 116.417 493.9 116.017 492.1C115.917 491.5 115.817 491.3 115.717 491.2C115.717 491.3 115.817 491.3 116.017 491.1C116.317 490.6 117.017 489.1 117.017 489.1C117.017 489.1 120.617 488.6 121.017 488.1C121.417 487.6 122.117 487.6 122.017 487.1C121.917 486.5 122.717 485.9 124.017 485.1C125.317 484.3 126.917 483.9 127.017 484.1C127.117 484.3 130.017 483.1 130.017 483.1C130.017 483.1 132.017 484.2 134.017 484.1C136.017 484 136.617 485.6 137.017 486.1C137.417 486.6 138.517 486.5 140.017 488.1C141.517 489.7 140.617 489.7 142.017 492.1C143.417 494.5 144.017 494.1 144.017 494.1C144.017 494.1 145.117 493.7 145.017 493.1C144.917 492.5 145.517 490.9 146.017 490.1C146.517 489.3 147.417 487.1 148.017 486.1L150.017 483.1C150.517 483.3 151.417 480.4 152.017 480.1C152.617 479.8 153.917 478.3 155.017 478.1C156.117 477.9 156.217 476.4 157.017 475.1C157.817 473.8 162.017 473.1 162.017 473.1C162.017 473.1 161.517 472.1 161.017 472.1Z" stroke="black" stroke-opacity="0.2" stroke-miterlimit="10"/>
<path fill-rule="evenodd" clip-rule="evenodd" d="M77.0172 506.1C76.4172 505.7 75.8172 504.4 75.0172 503.1C74.2172 501.8 75.4172 501.9 75.0172 500.1C74.6172 498.3 74.2172 499.6 73.0172 499.1C71.8172 498.6 72.0172 498.3 72.0172 497.1C72.0172 495.9 74.0172 494.5 74.0172 494.1C74.0172 493.7 72.9172 492.8 72.0172 492.1C71.1172 491.4 71.4172 493.5 71.0172 494.1C70.6172 494.7 69.5172 494.5 69.0172 494.1C68.5172 493.7 68.0172 493.1 68.0172 493.1L65.0172 494.1C65.0172 494.1 62.8172 493.5 62.0172 493.1C61.2172 492.7 63.2172 490.1 64.0172 490.1C64.8172 490.1 65.0172 489.1 65.0172 489.1C65.0172 489.1 66.4172 488.8 68.0172 488.1C69.6172 487.4 68.3172 485.8 68.0172 485.1C67.7172 484.4 68.1172 482.9 68.0172 482.1C67.9172 481.3 67.2172 479.7 67.0172 479.1C66.8172 478.5 64.7172 477.4 64.0172 477.1C63.3172 476.8 62.1172 479.3 62.0172 480.1C61.9172 480.9 58.0172 482.1 58.0172 482.1L56.0172 481.1H52.0172V482.1C52.0172 482.1 51.4172 480 50.0172 480.1C48.6172 480.1 49.0172 478.3 48.0172 477.1C47.0172 475.9 46.3172 475.1 46.0172 474.1C45.7172 473.1 45.3172 470.5 45.0172 470.1C44.7172 469.7 44.4172 469.2 44.0172 470.1C43.6172 471 41.7172 469.8 41.0172 469.1C40.3172 468.4 37.5172 468.4 37.0172 469.1C36.5172 469.8 35.8172 470.3 35.0172 471.1C34.2172 471.9 33.4172 470.3 31.0172 471.1C28.6172 471.9 29.4172 472.4 29.0172 473.1C28.6172 473.8 29.0172 474.1 29.0172 474.1L27.0172 477.1C27.0172 477.1 27.5172 478.1 27.0172 479.1C26.5172 480 26.1172 481.4 25.0172 482.1C23.9172 482.8 22.0172 479.1 22.0172 479.1C22.0172 479.1 18.3172 480.8 18.0172 482.1C17.7172 483.4 18.0172 484.1 18.0172 484.1C18.0172 484.1 18.2172 485 18.1172 485.6C17.4172 486 16.4172 486.6 16.0172 487.1C15.2172 487.9 15.3172 486.7 15.0172 486.1C14.7172 485.5 13.6172 483.7 14.0172 483.1C14.4172 482.5 12.1172 482.5 12.0172 482.1C11.9172 481.7 10.4172 483.7 9.01718 485.1C7.61718 486.5 9.41718 486.9 9.01718 487.1C8.61718 487.3 10.2172 488.6 10.0172 490.1C9.81718 491.6 8.61718 491.1 8.01718 491.1L5.01718 490.1L3.01718 489.1C3.01718 489.1 2.01718 491.6 2.01718 492.1C2.01718 492.6 1.21718 494.7 1.01718 495.1C0.817181 495.5 2.41718 496.6 3.01718 497.1C3.61718 497.6 4.01718 497.1 4.01718 497.1C4.01718 497.1 5.21718 497.9 6.01718 498.1C6.81718 498.3 8.01718 499.1 8.01718 499.1C8.01718 499.1 8.51718 500 10.0172 500.1C11.5172 500.2 12.0172 502.1 12.0172 502.1C12.0172 502.1 13.4172 503.4 13.0172 504.1C12.6172 504.8 14.2172 505.1 15.0172 507.1C15.8172 509.1 13.6172 508.6 13.0172 509.1C12.4172 509.6 11.1172 508.8 11.0172 508.1C10.9172 507.4 9.61718 507.6 10.0172 507.1C10.4172 506.6 9.21718 505.9 8.01718 504.1C6.81718 502.3 7.51718 502.5 7.01718 502.1C6.51718 501.7 5.01718 500.1 5.01718 500.1V502.1C5.01718 502.1 3.51718 504.9 3.01718 505.1C2.51718 505.3 5.21718 507.2 6.01718 508.1C6.81718 509 8.11718 509.7 9.01718 511.1C9.91718 512.5 9.01718 513.9 9.01718 515.1C9.01718 516.3 7.91718 517.1 8.01718 519.1C8.11718 521.1 10.5172 517.1 11.0172 517.1C11.5172 517.1 13.8172 513.7 14.0172 513.1C14.2172 512.5 15.1172 512.5 17.0172 512.1C18.9172 511.6 18.5172 510.5 19.0172 510.1C19.5172 509.7 20.0172 511.1 20.0172 511.1C20.0172 511.1 20.8172 512.9 21.0172 514.1C21.2172 515.3 19.7172 514.8 19.0172 516.1C18.3172 517.4 22.0172 517.1 22.0172 517.1C22.0172 517.1 26.1172 515 27.0172 514.1C27.9172 513.2 27.7172 511.4 27.0172 511.1C26.3172 510.8 26.3172 509.9 25.0172 509.1C23.7172 508.3 20.6172 507.8 20.0172 508.1C19.4172 508.4 21.4172 505.7 21.0172 505.1C20.6172 504.5 21.0172 504.1 21.0172 504.1C21.0172 504.1 20.8172 504 20.4172 503.8C20.8172 503.5 21.2172 502.9 21.0172 502.1C20.6172 500.8 19.7172 500.6 19.0172 500.1C18.3172 499.6 19.1172 499.4 19.0172 498.1C18.9172 496.8 19.9172 498.1 21.0172 497.1C22.0172 496.2 22.0172 496.1 22.0172 496.1C22.0172 496.1 23.3172 497 24.0172 497.1C24.4172 497.2 24.8172 497.2 25.1172 497.2L26.0172 498.1C26.0172 498.1 27.3172 498.5 27.0172 499.1C26.7172 499.7 28.0172 502.1 28.0172 502.1C28.0172 502.1 28.7172 504 29.0172 504.8C28.8172 505.3 28.8172 505.7 29.0172 506.1C29.6172 507 30.0172 506.9 31.0172 508.1C32.0172 509.3 32.1172 509.5 33.0172 510.1C33.9172 510.6 34.5172 511.1 34.0172 512.1C33.5172 513.1 33.8172 514.4 33.0172 515.1C32.2172 515.8 28.0172 518.1 28.0172 518.1C28.0172 518.1 31.9172 519.1 33.0172 518.1C34.1172 517.1 36.2172 515.5 36.0172 516.1C35.8172 516.7 35.7172 517.4 35.0172 518.1C34.3172 518.8 33.0172 519.3 33.0172 520.1C33.0172 520.9 32.4172 522.2 32.0172 523.1C31.6172 524 31.0172 527.1 31.0172 527.1C31.0172 527.1 31.2172 529 30.0172 530.1C28.8172 531.2 27.3172 530.9 27.0172 532.1C26.7172 533.3 26.0172 535.1 26.0172 535.1H24.0172C23.4172 535 22.0172 535.7 21.0172 536.1C20.0172 536.5 19.0172 536.1 19.0172 536.1L20.0172 538.1V540.1C20.0172 540.1 20.6172 540.7 21.0172 541.1C21.4172 541.5 21.2172 543.3 21.0172 544.1C20.8172 544.9 19.0172 546.1 19.0172 546.1C19.0172 546.1 20.2172 547.7 21.0172 548.1C21.8172 548.5 23.1172 549.6 23.0172 550.1C22.9172 550.6 25.0172 552.7 25.0172 553.1C25.0172 553.5 25.2172 554.9 25.0172 556.1C24.8172 557.3 23.7172 556.8 23.0172 558.1C22.3172 559.4 23.0172 561.1 23.0172 561.1L19.0172 560.1C17.6172 559.7 18.0172 561.1 18.0172 561.1C18.0172 561.1 20.4172 563.1 20.0172 563.1C19.6172 563.1 21.4172 567.1 21.0172 567.1C21.3172 567.1 24.0172 567.1 24.0172 567.1C24.0172 567.1 28.2172 566.5 29.0172 566.1C29.8172 565.7 30.0172 568.1 30.0172 568.1C30.0172 568.1 30.5172 569.8 31.0172 570.1C31.5172 570.4 34.3172 569.8 35.0172 569.1C35.7172 568.4 34.9172 567.5 35.0172 567.1C35.1172 566.7 33.7172 566.2 33.0172 566.1C32.3172 566 33.2172 564.3 32.0172 563.1C30.8172 561.9 32.2172 561.6 32.0172 561.1C31.8172 560.6 31.5172 559.5 31.0172 558.1C30.5172 556.7 32.0172 557.1 32.0172 557.1C32.0172 557.1 33.2172 555.7 33.0172 555.1C32.8172 554.5 34.0172 550.1 34.0172 550.1L36.0172 549.1C36.0172 549.1 37.5172 549.8 38.0172 551.1C38.5172 552.4 40.0172 552.1 40.0172 552.1L39.0172 554.1C39.0172 554.1 38.7172 555.3 38.0172 555.1C37.3172 554.9 37.0172 554.1 37.0172 554.1H35.0172H34.0172V557.1H38.0172C38.0172 557.1 37.7172 558.9 38.0172 560.1C38.3172 561.3 39.0172 562.1 39.0172 562.1V566.1C39.0172 566.1 38.1172 568.6 38.0172 569.1C37.9172 569.5 37.0172 571.1 37.0172 571.1V575.1L39.0172 573.1L41.0172 572.1C41.0172 572.1 41.7172 573 43.0172 572.1C44.3172 571.2 44.8172 570.3 46.0172 569.1C47.2172 567.9 47.0172 568.1 48.0172 568.1C49.0172 568.1 49.0172 568.1 49.0172 568.1C49.0172 568.1 49.0172 564.5 49.0172 564.1C49.0172 564.4 47.0172 563.1 47.0172 563.1C47.0172 563.1 47.0172 561.6 47.0172 561.1C47.0172 560.6 48.4172 560.1 49.0172 560.1C49.6172 560.1 51.6172 559.9 52.0172 560.1L53.0172 561.1C53.0172 561.1 55.6172 562.7 57.0172 562.1C58.4172 561.5 57.7172 560.5 58.0172 559.1C58.3172 557.7 58.3172 556.6 58.0172 556.1C57.7172 555.5 58.8172 554.8 60.0172 554.1C61.2172 553.4 60.0172 549.1 60.0172 549.1C60.0172 549.1 60.7172 541.4 61.0172 540.1C61.3172 538.8 62.2172 538.6 62.0172 537.1C61.8172 535.6 63.8172 533.3 64.0172 531.1C64.2172 528.9 64.9172 528.5 65.0172 527.1C65.1172 525.7 67.4172 522.4 68.0172 522.1C68.6172 521.8 67.6172 520 68.0172 520.1C68.4172 520.2 69.7172 517.7 70.0172 517.1C70.3172 516.5 71.4172 515.2 72.0172 515.1C72.6172 515 74.4172 511.4 74.0172 511.1C74.7172 510.8 75.4172 510.5 76.0172 510.1C76.6172 509.7 78.2172 507.6 78.0172 507.1C77.8172 506.6 77.7172 506.5 77.0172 506.1Z" stroke="black" stroke-opacity="0.2" stroke-miterlimit="10"/>
<path fill-rule="evenodd" clip-rule="evenodd" d="M27.0171 525.1C27.5171 524.7 29.0171 523.1 29.0171 523.1V521.1H26.0171C26.0171 521.1 25.0171 521.3 24.0171 522.1C23.0171 522.9 23.0171 524.1 23.0171 524.1L24.0171 526.1C24.0171 526.1 26.5171 525.5 27.0171 525.1Z" stroke="black" stroke-opacity="0.2" stroke-miterlimit="10"/>
<path fill-rule="evenodd" clip-rule="evenodd" d="M20.0172 529.1C20.5172 529.1 21.0172 527.1 21.0172 527.1C21.0172 527.1 21.8172 525.1 22.0172 524.1C22.2172 523.1 21.4172 521.9 21.0172 521.1C20.6172 520.3 20.4172 519.8 20.0172 520.1C19.6172 520.4 19.0172 520.1 19.0172 520.1C19.0172 520.1 17.4172 520.9 16.0172 522.1C14.6172 523.3 15.0172 525.1 15.0172 525.1V528.1C15.0172 528.1 14.4172 530.6 14.0172 531.1C13.6172 531.6 15.0172 533.1 15.0172 533.1C15.0172 533.1 17.2172 532.1 18.0172 531.1C18.8172 530.1 19.5172 529.1 20.0172 529.1Z" stroke="black" stroke-opacity="0.2" stroke-miterlimit="10"/>
<path fill-rule="evenodd" clip-rule="evenodd" d="M450.017 515.1L448.017 518.1L446.017 522.1C446.017 522.1 443.517 523.6 443.017 524.1C442.417 524.6 440.017 522.1 440.017 522.1H437.017L441.017 525.1L439.017 527.1L438.017 529.1L434.017 530.1L433.017 532.1L434.017 535.1L433.017 537.1L431.017 540.1L433.017 542.1H435.017L437.017 540.1L435.017 539.1C435.017 539.1 436.317 535.8 436.017 535.1C435.717 534.4 439.017 534.1 439.017 534.1C439.017 534.1 437.917 533 438.017 532.1C438.117 531.2 437.517 531.5 439.017 531.1C440.517 530.7 441.017 530.1 441.017 530.1L444.017 527.1C444.617 526.4 446.517 525.8 447.017 526.1C447.517 526.4 449.017 524.4 450.017 524.1C451.017 523.8 450.817 521.7 451.017 521.1C451.217 520.5 452.317 518.2 452.017 517.1C451.717 516 450.017 515.1 450.017 515.1Z" stroke="black" stroke-opacity="0.2" stroke-miterlimit="10"/>
<ellipse opacity="0.2" cx="335.5" cy="388.5" rx="23.5" ry="10.5" fill="#00B900"/>
<ellipse opacity="0.2" cx="189.5" cy="441.5" rx="23.5" ry="10.5" fill="#00B900"/>
<ellipse opacity="0.2" cx="39.5" cy="481.5" rx="23.5" ry="10.5" fill="#00B900"/>
<path d="M334.517 374.333C333.633 374.333 332.785 373.982 332.16 373.357C331.535 372.732 331.184 371.884 331.184 371C331.184 370.116 331.535 369.268 332.16 368.643C332.785 368.018 333.633 367.667 334.517 367.667C335.401 367.667 336.249 368.018 336.874 368.643C337.499 369.268 337.851 370.116 337.851 371C337.851 371.438 337.764 371.871 337.597 372.275C337.429 372.68 337.184 373.047 336.874 373.357C336.565 373.666 336.197 373.912 335.793 374.079C335.388 374.247 334.955 374.333 334.517 374.333V374.333ZM334.517 361.667C332.042 361.667 329.668 362.65 327.918 364.4C326.167 366.151 325.184 368.524 325.184 371C325.184 378 334.517 388.333 334.517 388.333C334.517 388.333 343.851 378 343.851 371C343.851 368.524 342.867 366.151 341.117 364.4C339.366 362.65 336.993 361.667 334.517 361.667V361.667Z" fill="#00B900"/>
<path d="M188.517 427.333C187.633 427.333 186.785 426.982 186.16 426.357C185.535 425.732 185.184 424.884 185.184 424C185.184 423.116 185.535 422.268 186.16 421.643C186.785 421.018 187.633 420.667 188.517 420.667C189.401 420.667 190.249 421.018 190.874 421.643C191.499 422.268 191.851 423.116 191.851 424C191.851 424.438 191.764 424.871 191.597 425.275C191.429 425.68 191.184 426.047 190.874 426.357C190.565 426.666 190.197 426.912 189.793 427.079C189.388 427.247 188.955 427.333 188.517 427.333V427.333ZM188.517 414.667C186.042 414.667 183.668 415.65 181.918 417.4C180.167 419.151 179.184 421.524 179.184 424C179.184 431 188.517 441.333 188.517 441.333C188.517 441.333 197.851 431 197.851 424C197.851 421.524 196.867 419.151 195.117 417.4C193.366 415.65 190.993 414.667 188.517 414.667V414.667Z" fill="#00B900"/>
<path d="M38.5172 467.333C37.6331 467.333 36.7853 466.982 36.1601 466.357C35.535 465.732 35.1838 464.884 35.1838 464C35.1838 463.116 35.535 462.268 36.1601 461.643C36.7853 461.018 37.6331 460.667 38.5172 460.667C39.4012 460.667 40.2491 461.018 40.8742 461.643C41.4993 462.268 41.8505 463.116 41.8505 464C41.8505 464.438 41.7643 464.871 41.5968 465.275C41.4293 465.68 41.1837 466.047 40.8742 466.357C40.5647 466.666 40.1972 466.912 39.7928 467.079C39.3884 467.247 38.9549 467.333 38.5172 467.333V467.333ZM38.5172 454.667C36.0418 454.667 33.6678 455.65 31.9175 457.4C30.1672 459.151 29.1838 461.524 29.1838 464C29.1838 471 38.5172 481.333 38.5172 481.333C38.5172 481.333 47.8505 471 47.8505 464C47.8505 461.524 46.8672 459.151 45.1168 457.4C43.3665 455.65 40.9925 454.667 38.5172 454.667V454.667Z" fill="#00B900"/>
</svg>
