<svg width="30" height="30" viewBox="0 0 30 30" xmlns="http://www.w3.org/2000/svg" fill="none"><path d="M23.5 0h-17c-3.59 0-6.5 2.91-6.5 6.5v17c0 3.59 2.91 6.5 6.5 6.5h17c3.59 0 6.5-2.91 6.5-6.5v-17c0-3.59-2.91-6.5-6.5-6.5z" fill="#00B900"/><path d="M25.875 13.68c0-4.888-4.9-8.863-10.925-8.863s-10.922 3.975-10.922 8.863c0 4.383 3.888 8.052 9.135 8.75.357.078.84.235.963.54.087.326.099.668.035 1l-.16.918c-.048.275-.22 1.08.945.588 1.165-.493 6.305-3.703 8.587-6.34 1.582-1.75 2.343-3.5 2.343-5.455" fill="#fff"/><path d="M12.732 11.32h-.768l-.15.062-.062.15v4.75l.062.15.15.062h.768l.15-.062.062-.15v-4.75l-.062-.15-.15-.062M18 11.32h-.75l-.15.062-.062.15v2.828l-2.193-2.947-.015-.02-.013-.013h-.849l-.15.062-.062.15v4.75l.062.15.15.062h.765l.151-.062.064-.15v-2.878l2.182 2.947.055.053h.027l.038.035h.75l.15-.062.062-.15v-4.75l-.062-.15-.15-.062" fill="#00B900"/><path d="M10.885 15.312h-2.082v-3.78l-.062-.15-.15-.062h-.765l-.15.062-.062.15v4.75l.058.148.147.058h3.067l.15-.062.062-.15v-.75l-.062-.15-.15-.062zM22.25 12.5l.081-.016.069-.046.046-.069.016-.081v-.755l-.062-.15-.15-.062h-3.075l-.148.06-.045.068-.015.08v4.75l.015.08.045.068.148.06h3.075l.15-.062.062-.15v-.748l-.062-.15-.15-.062h-2.095v-.813h2.095l.15-.062.062-.15v-.76l-.016-.081-.046-.069-.069-.046-.081-.016h-2.095v-.815h2.095z" fill="#00B900"/></svg>