<svg id="レイヤー_1" data-name="レイヤー 1" xmlns="http://www.w3.org/2000/svg" viewBox="0 0 111.49 40.69"><defs><style>.cls-1{fill:#00b900;}</style></defs><path class="cls-1" d="M46.87,23l-.46,1.23H36.74a.93.93,0,0,1-.9-1.19l3.55-12.74h5.49S41.35,22.9,41.33,23Zm29.44,0c0-.05.8-2.87.8-2.87a.93.93,0,0,0-.9-1.19H57.34l-1.61-4.41c4.4.17,7.62-2.73,7.56-6.82A7.76,7.76,0,0,0,55.54,0H43.67a1.88,1.88,0,0,0-1.81,1.37L40.77,5.29h14.5A2.43,2.43,0,0,1,58,7.42c.19,1.5-1.12,2.78-3,2.78l-6.42.05L53.2,22.94A1.87,1.87,0,0,0,55,24.14H81.78l.35-1.23ZM106.19,0h-3.75a1.9,1.9,0,0,0-1.58.86L90.33,17.22,87.22.76A.94.94,0,0,0,86.29,0H68.73a1.88,1.88,0,0,0-1.81,1.38l-.75,2.73a.94.94,0,0,0,.91,1.18H82.46l3.68,18.14a.94.94,0,0,0,.92.75h14l.34-1.23H93l14-21.5A.94.94,0,0,0,106.19,0Zm41.1,7.38A7.82,7.82,0,0,0,139.41,0H127.67a1.89,1.89,0,0,0-1.81,1.38l-3.94,14.25a5.81,5.81,0,0,1-5.59,4.25h-.1A4.06,4.06,0,0,1,113,18.29a3.87,3.87,0,0,1-.63-3.37l3.79-13.69h4.34L120.81,0H112.4a1.88,1.88,0,0,0-1.81,1.37l-3.36,12.14a9.12,9.12,0,0,0,1.56,8,9.41,9.41,0,0,0,6.85,3.58v0H136l.36-1.23h-15A11.1,11.1,0,0,0,127,17L130.27,5.3H139c2.24,0,3,1,3,2.33a2.54,2.54,0,0,1-2.53,2.57l-4.83,0a1.87,1.87,0,0,0-1.78,1.37l-.77,2.74a.94.94,0,0,0,.91,1.19l6.55,0a7.74,7.74,0,0,0,5.6-2.4A7.65,7.65,0,0,0,147.29,7.38ZM141.08,21.3h-7.92l-.35,1.23h7.92ZM78.83,13.49c0-.05.82-2.87.82-2.87a.94.94,0,0,0-.9-1.2H67.08a1.89,1.89,0,0,0-1.82,1.4l-.72,2.72a.94.94,0,0,0,.9,1.18h16l.33-1.23Z" transform="translate(-35.8 0)"/><path class="cls-1" d="M93.37,29.82a4.55,4.55,0,0,0-3.62-1.73h0A5.35,5.35,0,0,0,84.6,32l-.85,3.07A4.42,4.42,0,0,0,84.51,39a4.53,4.53,0,0,0,3.62,1.74h0a5.35,5.35,0,0,0,5.14-3.92l.85-3.07A4.43,4.43,0,0,0,93.37,29.82Zm-2.55,6.27a2.78,2.78,0,0,1-2.68,2h0a2,2,0,0,1-1.58-.76,1.86,1.86,0,0,1-.3-1.63l.83-3h0l0-.06a2.79,2.79,0,0,1,2.68-2.05h.05a2,2,0,0,1,1.58.77,1.84,1.84,0,0,1,.3,1.62Z" transform="translate(-35.8 0)"/><path class="cls-1" d="M79.49,28.1A5.31,5.31,0,0,0,74,31.53a.34.34,0,0,0,.33.45h1.94a.66.66,0,0,0,.56-.33,2.43,2.43,0,0,1,2.23-1,1.55,1.55,0,0,1,1.54,2.07c-.58,2-6.78,1.89-8.57,7a.34.34,0,0,0,.33.46h8.25a.63.63,0,0,0,.61-.47l.47-1.77a.34.34,0,0,0-.33-.43H76.19c1.69-.56,6-.9,7.07-4.26A3.91,3.91,0,0,0,79.49,28.1Z" transform="translate(-35.8 0)"/><path class="cls-1" d="M100.93,28.1a5.34,5.34,0,0,0-5.46,3.43.34.34,0,0,0,.33.45h1.94a.68.68,0,0,0,.57-.33,2.43,2.43,0,0,1,2.23-1,1.55,1.55,0,0,1,1.54,2.07c-.58,2-6.79,1.89-8.57,7a.34.34,0,0,0,.32.46h8.25a.64.64,0,0,0,.62-.47l.47-1.77a.34.34,0,0,0-.33-.43H97.63c1.68-.56,6.05-.9,7.07-4.26A3.92,3.92,0,0,0,100.93,28.1Z" transform="translate(-35.8 0)"/><path class="cls-1" d="M106.81,29l-.47,1.68a.34.34,0,0,0,.33.44h1.11l-2.4,8.59a.35.35,0,0,0,.33.44h1.75a.6.6,0,0,0,.58-.44L111,29a.33.33,0,0,0-.33-.43h-3.32A.59.59,0,0,0,106.81,29Z" transform="translate(-35.8 0)"/></svg>