<svg width="2484" height="186" viewBox="0 0 2484 186" fill="none" xmlns="http://www.w3.org/2000/svg">
<path d="M215.44 144.96V181.92H106V0H149.2V144.96H215.44Z" fill="#009949" fill-opacity="0.08"/>
<path d="M337.161 0C360.201 0 377.481 5.12001 389.001 15.36C400.681 25.44 406.521 40.56 406.521 60.72C406.521 80.4 400.681 95.36 389.001 105.6C377.481 115.84 360.201 120.96 337.161 120.96H306.681V181.92H263.481V0H337.161ZM337.161 84.48C345.801 84.48 352.201 82.56 356.361 78.72C360.521 74.88 362.681 68.88 362.841 60.72C362.841 52.24 360.761 46.08 356.601 42.24C352.441 38.4 345.961 36.48 337.161 36.48H306.681V84.48H337.161Z" fill="#009949" fill-opacity="0.08"/>
<path d="M492.991 36.96V76.8H558.031V113.76H492.991V181.92H449.791V0H570.031V36.96H492.991Z" fill="#009949" fill-opacity="0.08"/>
<path d="M753.347 116.16H733.188V181.92H689.987V0H763.667C809.907 0 833.027 19.44 833.027 58.32C833.027 86 820.947 103.76 796.787 111.6L840.227 181.92H792.227L753.347 116.16ZM733.188 79.68H763.667C780.787 79.68 789.347 72.56 789.347 58.32C789.347 50.8 787.267 45.28 783.107 41.76C778.947 38.24 772.467 36.48 763.667 36.48H733.188V79.68Z" fill="#009949" fill-opacity="0.08"/>
<path d="M1008.52 147.36V181.92H887.078V0H1007.32V34.56H930.278V73.2H995.318V107.76H930.278V147.36H1008.52Z" fill="#009949" fill-opacity="0.08"/>
<path d="M1231.59 0L1167.99 184.08H1113.27L1049.43 0H1093.83L1140.63 139.44L1187.19 0H1231.59Z" fill="#009949" fill-opacity="0.08"/>
<path d="M1428.41 186C1402.01 186 1382.17 179.44 1368.89 166.32C1355.77 153.2 1349.21 134.56 1349.21 110.4V0H1392.41V110.4C1392.41 123.36 1395.37 133.12 1401.29 139.68C1407.37 146.24 1416.41 149.52 1428.41 149.52C1440.41 149.52 1449.37 146.24 1455.29 139.68C1461.37 133.12 1464.41 123.36 1464.41 110.4V0H1507.61V110.4C1507.61 134.56 1501.05 153.2 1487.93 166.32C1474.81 179.44 1454.97 186 1428.41 186Z" fill="#009949" fill-opacity="0.08"/>
<path d="M1638.96 0C1662 0 1679.28 5.12001 1690.8 15.36C1702.48 25.44 1708.32 40.56 1708.32 60.72C1708.32 80.4 1702.48 95.36 1690.8 105.6C1679.28 115.84 1662 120.96 1638.96 120.96H1608.48V181.92H1565.28V0H1638.96ZM1638.96 84.48C1647.6 84.48 1654 82.56 1658.16 78.72C1662.32 74.88 1664.48 68.88 1664.64 60.72C1664.64 52.24 1662.56 46.08 1658.4 42.24C1654.24 38.4 1647.76 36.48 1638.96 36.48H1608.48V84.48H1638.96Z" fill="#009949" fill-opacity="0.08"/>
<path d="M1814.41 144.96C1834.09 128.32 1848.17 116.24 1856.65 108.72C1865.13 101.04 1871.53 94.32 1875.85 88.56C1880.17 82.64 1882.33 77.12 1882.33 72C1882.33 65.76 1880.33 61.12 1876.33 58.08C1872.33 54.88 1866.89 53.28 1860.01 53.28C1846.73 53.28 1833.53 56.56 1820.41 63.12V25.68C1828.25 22.32 1836.09 20 1843.93 18.72C1851.77 17.44 1860.25 16.8 1869.37 16.8C1885.85 16.8 1899.21 21.2 1909.45 30C1919.85 38.8 1925.05 51.36 1925.05 67.68C1925.05 76.96 1923.21 85.44 1919.53 93.12C1915.85 100.64 1910.09 108.32 1902.25 116.16C1894.41 123.84 1883.29 133.44 1868.89 144.96H1929.85V181.92H1814.41V144.96Z" fill="#009949" fill-opacity="0.08"/>
<path d="M2021.48 186C2001 186 1985.96 179.44 1976.36 166.32C1966.76 153.04 1961.96 131.36 1961.96 101.28C1961.96 71.84 1966.76 50.4 1976.36 36.96C1986.12 23.52 2001.16 16.8 2021.48 16.8C2041.16 16.8 2055.96 23.6 2065.88 37.2C2075.96 50.8 2081 72.16 2081 101.28C2081 131.04 2076.04 152.64 2066.12 166.08C2056.2 179.36 2041.32 186 2021.48 186ZM2021.48 149.52C2025.16 149.52 2028.2 148.24 2030.6 145.68C2033 142.96 2034.84 138.08 2036.12 131.04C2037.56 124 2038.28 114.08 2038.28 101.28C2038.28 83.04 2036.84 70.48 2033.96 63.6C2031.24 56.72 2027.08 53.28 2021.48 53.28C2017.48 53.28 2014.28 54.64 2011.88 57.36C2009.48 60.08 2007.64 64.88 2006.36 71.76C2005.24 78.64 2004.68 88.48 2004.68 101.28C2004.68 114.24 2005.24 124.24 2006.36 131.28C2007.64 138.16 2009.48 142.96 2011.88 145.68C2014.28 148.24 2017.48 149.52 2021.48 149.52Z" fill="#009949" fill-opacity="0.08"/>
<path d="M2116.71 144.96C2136.39 128.32 2150.47 116.24 2158.95 108.72C2167.43 101.04 2173.83 94.32 2178.15 88.56C2182.47 82.64 2184.63 77.12 2184.63 72C2184.63 65.76 2182.63 61.12 2178.63 58.08C2174.63 54.88 2169.19 53.28 2162.31 53.28C2149.03 53.28 2135.83 56.56 2122.71 63.12V25.68C2130.55 22.32 2138.39 20 2146.23 18.72C2154.07 17.44 2162.55 16.8 2171.67 16.8C2188.15 16.8 2201.51 21.2 2211.75 30C2222.15 38.8 2227.35 51.36 2227.35 67.68C2227.35 76.96 2225.51 85.44 2221.83 93.12C2218.15 100.64 2212.39 108.32 2204.55 116.16C2196.71 123.84 2185.59 133.44 2171.19 144.96H2232.15V181.92H2116.71V144.96Z" fill="#009949" fill-opacity="0.08"/>
<path d="M2323.79 186C2303.31 186 2288.27 179.44 2278.67 166.32C2269.07 153.04 2264.27 131.36 2264.27 101.28C2264.27 71.84 2269.07 50.4 2278.67 36.96C2288.43 23.52 2303.47 16.8 2323.79 16.8C2343.47 16.8 2358.27 23.6 2368.19 37.2C2378.27 50.8 2383.31 72.16 2383.31 101.28C2383.31 131.04 2378.35 152.64 2368.43 166.08C2358.51 179.36 2343.63 186 2323.79 186ZM2323.79 149.52C2327.47 149.52 2330.51 148.24 2332.91 145.68C2335.31 142.96 2337.15 138.08 2338.43 131.04C2339.87 124 2340.59 114.08 2340.59 101.28C2340.59 83.04 2339.15 70.48 2336.27 63.6C2333.55 56.72 2329.39 53.28 2323.79 53.28C2319.79 53.28 2316.59 54.64 2314.19 57.36C2311.79 60.08 2309.95 64.88 2308.67 71.76C2307.55 78.64 2306.99 88.48 2306.99 101.28C2306.99 114.24 2307.55 124.24 2308.67 131.28C2309.95 138.16 2311.79 142.96 2314.19 145.68C2316.59 148.24 2319.79 149.52 2323.79 149.52Z" fill="#009949" fill-opacity="0.08"/>
</svg>
