<?xml version="1.0" encoding="utf-8"?>
<!-- Generator: Adobe Illustrator 24.2.0, SVG Export Plug-In . SVG Version: 6.00 Build 0)  -->
<svg version="1.1" id="レイヤー_1" xmlns="http://www.w3.org/2000/svg" xmlns:xlink="http://www.w3.org/1999/xlink" x="0px"
	 y="0px" viewBox="0 0 567 301" enable-background="new 0 0 567 301" xml:space="preserve">
<g>
	<g>
		<path fill="#FFFFFF" d="M56.216,210.784l-2.316,6.324H4.843c-3.158,0-5.474-2.951-4.632-6.113l18.107-64.921H46.32
			c0,0-17.896,64.5-18.107,64.71H56.216z M205.914,210.574c0-0.211,4-14.545,4-14.545c0.842-2.951-1.474-6.112-4.632-6.112h-95.798
			l-8.211-22.343c22.317,0.843,38.74-13.912,38.529-34.78c-0.421-21.5-17.896-38.784-39.372-38.784H40.004
			c-4.211,0-8.001,2.951-9.264,6.956l-5.474,20.024h73.691c8.422,0,12.844,4.637,13.686,10.75
			c1.053,7.588-5.685,14.123-15.159,14.123c-6.106,0-32.635,0.211-32.635,0.211l23.581,64.71c1.474,3.584,5.053,6.113,8.843,6.113
			h136.434l1.895-6.323H205.914z M357.928,94.01h-18.949c-3.158,0-6.317,1.686-8.001,4.426l-53.479,83.26l-15.791-83.681
			c-0.421-2.319-2.316-3.794-4.632-3.794h-89.692c-4.211,0-8.001,2.951-9.264,6.955l-3.79,13.912
			c-0.842,2.951,1.474,6.113,4.632,6.113h78.323l18.739,92.323c0.421,2.319,2.316,3.795,4.632,3.795h71.375l1.684-6.324h-42.951
			l71.164-109.397C364.034,98.226,361.718,94.01,357.928,94.01z M567,131.529c-1.053-21.078-18.528-37.519-40.004-37.519h-59.584
			c-4.211,0-8.001,2.951-9.264,6.956l-20.213,72.509c-3.579,12.648-15.159,21.711-28.423,21.711h-0.632
			c-6.527,0-12.843-2.951-16.633-8.01c-3.579-5.058-4.843-11.171-3.158-17.284l19.37-69.769h22.107l1.685-6.324H389.51
			c-4.211,0-8.001,2.951-9.264,6.956l-17.054,61.76c-4.001,14.333-1.053,29.299,8,40.892c8.422,10.961,21.265,17.284,34.74,18.338
			v0.211h103.589l1.895-6.324h-76.218c13.686-6.956,24.424-19.603,28.635-35.201l16.633-59.652h44.214
			c11.37,0,15.16,5.27,15.37,11.804c0.211,3.794-2.737,13.069-12.843,13.069c-5.895,0-17.054,0.211-24.634,0.211
			c-4.211,0-8.001,2.951-9.054,6.956l-3.789,13.911c-0.843,2.951,1.473,6.113,4.632,6.113c9.474,0,27.16-0.211,33.266-0.211
			c10.738,0,21.054-4.426,28.424-12.225C563.631,152.819,567.421,142.49,567,131.529z M535.418,202.353h-40.214l-1.895,6.323h40.214
			L535.418,202.353z M218.757,162.725c0-0.21,4.211-14.544,4.211-14.544c0.842-2.951-1.474-6.112-4.632-6.112h-59.374
			c-4.421,0-8.001,2.951-9.264,7.166l-3.79,13.912c-0.842,2.951,1.474,5.902,4.632,5.902h81.271l1.684-6.324H218.757z"/>
		<path fill="#FFFFFF" d="M249.707,63.868l-2.526,8.642c-0.632,2.529-3.158,4.426-5.685,4.426h-42.53
			c-1.895,0-3.158-1.686-2.737-3.583l19.37-69.348C216.23,1.686,218.546,0,220.862,0h9.475c1.895,0,3.158,1.686,2.737,3.583
			l-15.791,56.49h29.477C248.865,60.074,250.128,61.971,249.707,63.868z M420.67,0h-49.478h-0.421c-2.526,0-4.632,1.686-5.264,4.005
			l-19.37,69.348c-0.421,1.686,0.842,3.583,2.737,3.583h9.475c2.526,0,4.632-1.686,5.264-4.005l6.737-24.24h26.529
			c2.737,0,5.053-1.686,5.685-4.426l2.526-8.642c0.632-1.897-0.842-3.794-2.948-3.794h-27.16l4.211-14.966h36.003
			c2.737,0,5.053-1.686,5.685-4.426l2.527-8.642C424.039,1.897,422.565,0,420.67,0z M322.346,0H285.5h-0.21
			c-2.527,0-4.633,1.686-5.264,4.005l-19.37,69.348c-0.421,1.686,0.842,3.583,2.737,3.583h9.474c2.527,0,4.632-1.686,5.264-4.005
			l15.791-56.279h27.16c6.948,0,9.264,3.372,9.475,7.377c0.21,2.319-1.685,8.01-8.001,8.01c-3.579,0-10.527,0-15.159,0.211
			c-2.527,0-4.843,1.686-5.474,4.216l-2.316,8.642c-0.421,1.897,0.842,3.794,2.947,3.794c5.896,0,16.844-0.211,20.634-0.211
			c6.527,0,13.054-2.74,17.475-7.588c4.632-4.848,6.948-11.172,6.738-17.917C346.348,10.118,335.61,0,322.346,0z"/>
		<path fill="#FFFFFF" d="M280.868,245.774c-4.421-5.691-11.159-8.852-18.317-8.852c-12.212,0-22.95,8.22-26.108,20.024
			l-4.211,15.598c-1.895,6.956-0.421,14.123,3.79,19.814c4.421,5.691,11.159,8.853,18.317,8.853c12.212,0,22.95-8.221,26.108-20.025
			l4.211-15.598C286.553,258.632,285.29,251.466,280.868,245.774z M267.814,277.814c-1.684,6.112-7.369,10.328-13.685,10.328h-0.211
			c-3.158,0-6.106-1.475-8-3.794c-1.685-2.319-2.317-5.48-1.474-8.221l4.211-15.387v-0.421c1.684-6.113,7.369-10.329,13.685-10.329
			h0.211c3.158,0,6.105,1.476,8,3.794c1.685,2.319,2.316,5.481,1.474,8.221L267.814,277.814z"/>
		<path fill="#FFFFFF" d="M210.335,236.922c-15.159-0.844-24.634,8.642-27.792,17.495c-0.421,1.054,0.421,2.318,1.685,2.318h9.895
			c1.264,0,2.316-0.632,2.948-1.686c1.895-2.951,6.106-5.902,11.369-5.27c8.001,0.844,8.843,6.745,7.791,10.54
			c-2.948,10.117-34.53,9.696-43.583,35.833c-0.421,1.054,0.421,2.319,1.684,2.319h41.899c1.473,0,2.737-1.054,3.158-2.319
			l2.316-9.064c0.21-1.054-0.632-2.108-1.685-2.108h-26.528c8.632-2.951,30.739-4.637,36.003-21.71
			C232.653,252.73,227.6,237.975,210.335,236.922z"/>
		<path fill="#FFFFFF" d="M389.931,245.774c-4.421-5.691-11.159-8.852-18.317-8.852c-12.212,0-22.95,8.22-26.108,20.024
			l-4.211,15.598c-1.895,6.956-0.421,14.123,3.79,19.814c4.421,5.691,11.159,8.853,18.317,8.853c12.212,0,22.95-8.221,26.108-20.025
			l4.211-15.598C395.616,258.632,394.142,251.466,389.931,245.774z M376.877,277.814c-1.684,6.112-7.369,10.328-13.685,10.328
			h-0.211c-3.158,0-6.106-1.475-8.001-3.794c-1.684-2.319-2.316-5.48-1.473-8.221l4.211-15.387v-0.421
			c1.684-6.113,7.369-10.329,13.685-10.329h0.211c3.158,0,6.105,1.476,8,3.794c1.685,2.319,2.316,5.481,1.474,8.221L376.877,277.814
			z"/>
		<path fill="#FFFFFF" d="M319.188,236.922c-15.16-0.844-24.634,8.642-27.792,17.495c-0.422,1.054,0.421,2.318,1.684,2.318h9.896
			c1.263,0,2.316-0.632,2.947-1.686c1.895-2.951,6.106-5.902,11.37-5.27c8,0.844,8.843,6.745,7.79,10.54
			c-2.948,10.117-34.53,9.696-43.583,35.833c-0.421,1.054,0.421,2.319,1.684,2.319h41.899c1.474,0,2.737-1.054,3.158-2.319
			l2.316-9.064c0.211-1.054-0.632-2.108-1.684-2.108h-26.529c8.632-2.951,30.74-4.637,36.003-21.71
			C341.505,252.73,336.663,237.975,319.188,236.922z"/>
	</g>
</g>
</svg>
